<?xml version="1.0" encoding="utf-8"?>
<!-- Generator: Adobe Illustrator 24.2.0, SVG Export Plug-In . SVG Version: 6.00 Build 0)  -->
<svg version="1.1" id="Layer_1" xmlns="http://www.w3.org/2000/svg" xmlns:xlink="http://www.w3.org/1999/xlink" x="0px" y="0px"
	 viewBox="0 0 2834.6 1417.3" style="enable-background:new 0 0 2834.6 1417.3;" xml:space="preserve">
<style type="text/css">
	.st0{fill:url(#SVGID_1_);}
	.st1{fill:url(#SVGID_2_);}
	.st2{fill:url(#SVGID_3_);}
	.st3{fill:url(#SVGID_4_);}
	.st4{fill:url(#SVGID_5_);}
	.st5{fill:none;stroke:#FFFFFF;stroke-width:15;stroke-linecap:round;stroke-miterlimit:10;stroke-opacity:0.5;}
	.st6{fill:none;}
</style>
<g id="Réteg_1">
	
		<linearGradient id="SVGID_1_" gradientUnits="userSpaceOnUse" x1="44.1803" y1="12.3005" x2="2772.8757" y2="1397.4485" gradientTransform="matrix(1 0 0 -1 0 1418)">
		<stop  offset="0" style="stop-color:#FF3636"/>
		<stop  offset="1" style="stop-color:#630000"/>
	</linearGradient>
	<rect class="st0" width="2834.6" height="1417.3"/>
</g>
<g id="Réteg_2">
</g>
<linearGradient id="SVGID_2_" gradientUnits="userSpaceOnUse" x1="593.2523" y1="1407.9089" x2="983.1646" y2="1011.5555" gradientTransform="matrix(1 0 0 -1 0 1418)">
	<stop  offset="0" style="stop-color:#FF3636"/>
	<stop  offset="1" style="stop-color:#630000"/>
</linearGradient>
<path class="st1" d="M996.9,415.4c-55.4,55.4-145.1,55.4-200.4,0L395.6,14.6c-4.6-4.6-8.9-9.5-12.7-14.6h399l215,215
	C1052.3,270.4,1052.2,360.1,996.9,415.4z"/>
<linearGradient id="SVGID_3_" gradientUnits="userSpaceOnUse" x1="4.1493" y1="591.5427" x2="358.9022" y2="242.8297" gradientTransform="matrix(1 0 0 -1 0 1418)">
	<stop  offset="0" style="stop-color:#FF3636"/>
	<stop  offset="1" style="stop-color:#630000"/>
</linearGradient>
<path class="st2" d="M390.1,1210.9c-55.4,55.3-145.1,55.3-200.4,0L0,1021.2V620.3l390.1,390.1
	C445.5,1065.8,445.5,1155.6,390.1,1210.9z"/>
<linearGradient id="SVGID_4_" gradientUnits="userSpaceOnUse" x1="1498.7839" y1="765.2034" x2="2931.5183" y2="297.2841" gradientTransform="matrix(1 0 0 -1 0 1418)">
	<stop  offset="0" style="stop-color:#FF3636"/>
	<stop  offset="1" style="stop-color:#630000"/>
</linearGradient>
<path class="st3" d="M2834.6,1351.6v65.7h-335.1l-881-881c-55.3-55.4-55.3-145.1,0-200.4s145.1-55.4,200.4,0l1.3,1.3L2834.6,1351.6z
	"/>
<linearGradient id="SVGID_5_" gradientUnits="userSpaceOnUse" x1="1491.2411" y1="285.8629" x2="1760.8546" y2="-16.0286" gradientTransform="matrix(1 0 0 -1 0 1418)">
	<stop  offset="0" style="stop-color:#FF3636"/>
	<stop  offset="1" style="stop-color:#630000"/>
</linearGradient>
<path class="st4" d="M1951.4,1417.3h-400.9l-91.7-91.7c-55.4-55.3-55.4-145.1,0-200.4c55.3-55.3,145.1-55.4,200.4,0L1951.4,1417.3z"
	/>
<line class="st5" x1="44.3" y1="0" x2="640.6" y2="596.2"/>
<line class="st5" x1="918.6" y1="0" x2="1876.8" y2="958.2"/>
<line class="st5" x1="2547.5" y1="474.6" x2="2834.6" y2="761.8"/>
<line class="st5" x1="194.7" y1="341.3" x2="1120" y2="1266.6"/>
<line class="st5" x1="2501" y1="428.1" x2="2363.8" y2="290.9"/>
<line class="st5" x1="2312.8" y1="240" x2="2268.6" y2="195.7"/>
<line class="st5" x1="2235.4" y1="162.5" x2="2233.4" y2="160.5"/>
<line class="st5" x1="1923.3" y1="1004.7" x2="2084.9" y2="1166.3"/>
<line class="st5" x1="2169" y1="1250.4" x2="2171" y2="1252.4"/>
<line class="st5" x1="1173.1" y1="1319.7" x2="1270.7" y2="1417.3"/>
<line class="st5" x1="148.2" y1="294.8" x2="86.3" y2="232.9"/>
<line class="st5" x1="39.8" y1="186.4" x2="37.8" y2="184.4"/>
<rect class="st6" width="2834.6" height="1417.3"/>
</svg>
