<svg xmlns="http://www.w3.org/2000/svg" xmlns:xlink="http://www.w3.org/1999/xlink" viewBox="0 0 2834.65 1417.32"><defs><style>.cls-1,.cls-8{fill:none;}.cls-2{fill:url(#Névtelen_színátmenet_15);}.cls-3{clip-path:url(#clip-path);}.cls-4{fill:url(#Névtelen_színátmenet_15-2);}.cls-5{fill:url(#Névtelen_színátmenet_15-3);}.cls-6{fill:url(#Névtelen_színátmenet_15-4);}.cls-7{fill:url(#Névtelen_színátmenet_15-5);}.cls-8{stroke:#fff;stroke-linecap:round;stroke-miterlimit:10;stroke-opacity:0.5;stroke-width:15px;}.cls-9{font-size:200px;fill:#fff;font-family:Poppins-ExtraBold, Poppins;font-weight:800;}</style><linearGradient id="Névtelen_színátmenet_15" x1="44.18" y1="1405.7" x2="2772.88" y2="20.55" gradientUnits="userSpaceOnUse"><stop offset="0" stop-color="#ffcb55"/><stop offset="1" stop-color="#e94e1b"/></linearGradient><clipPath id="clip-path"><rect class="cls-1" width="2834.65" height="1417.32"/></clipPath><linearGradient id="Névtelen_színátmenet_15-2" x1="-698.48" y1="-633.56" x2="5.11" y2="-990.71" gradientTransform="translate(367.11 934.19) rotate(45)" xlink:href="#Névtelen_színátmenet_15"/><linearGradient id="Névtelen_színátmenet_15-3" x1="-5.67" y1="1204.24" x2="697.92" y2="847.08" gradientTransform="translate(569.98 -59.76) rotate(45)" xlink:href="#Névtelen_színátmenet_15"/><linearGradient id="Névtelen_színátmenet_15-4" x1="1463.63" y1="760.44" x2="3184.58" y2="1322.5" xlink:href="#Névtelen_színátmenet_15"/><linearGradient id="Névtelen_színátmenet_15-5" x1="1539.79" y1="387.94" x2="2243.38" y2="30.78" gradientTransform="translate(569.98 -59.76) rotate(45)" xlink:href="#Névtelen_színátmenet_15"/></defs><g id="Réteg_1" data-name="Réteg 1"><rect class="cls-2" width="2834.65" height="1417.32"/></g><g id="Réteg_3" data-name="Réteg 3"><g class="cls-3"><path class="cls-4" d="M996.9,415.44a141.73,141.73,0,0,1-200.44,0L395.58,14.56a141.73,141.73,0,0,1,0-200.44,141.74,141.74,0,0,1,200.44,0L996.9,215A141.74,141.74,0,0,1,996.9,415.44Z"/><path class="cls-5" d="M390.14,1210.9a141.73,141.73,0,0,1-200.44,0L-211.18,810a141.73,141.73,0,0,1,0-200.44,141.73,141.73,0,0,1,200.44,0l400.88,400.88A141.74,141.74,0,0,1,390.14,1210.9Z"/><path class="cls-6" d="M3029.73,1747.1a141.73,141.73,0,0,1-200.44,0l-1.29-1.3L1618.48,536.28a141.73,141.73,0,0,1,200.44-200.44l1.29,1.3L3029.73,1546.66A141.73,141.73,0,0,1,3029.73,1747.1Z"/><path class="cls-7" d="M2060.15,1726.48a141.7,141.7,0,0,1-200.43,0L1458.84,1325.6a141.73,141.73,0,1,1,200.43-200.43l400.88,400.88A141.71,141.71,0,0,1,2060.15,1726.48Z"/><line class="cls-8" x1="-322.32" y1="-366.66" x2="640.58" y2="596.23"/><line class="cls-8" x1="889.1" y1="-29.46" x2="1876.78" y2="958.22"/><line class="cls-8" x1="2547.47" y1="474.6" x2="3669.75" y2="1596.88"/><line class="cls-8" x1="194.71" y1="341.32" x2="1119.97" y2="1266.58"/><line class="cls-8" x1="2500.99" y1="428.12" x2="2363.75" y2="290.88"/><line class="cls-8" x1="2312.84" y1="239.97" x2="2268.57" y2="195.7"/><line class="cls-8" x1="2235.36" y1="162.49" x2="2233.36" y2="160.49"/><line class="cls-8" x1="1923.26" y1="1004.7" x2="2084.85" y2="1166.29"/><line class="cls-8" x1="2168.96" y1="1250.41" x2="2170.97" y2="1252.41"/><line class="cls-8" x1="1173.1" y1="1319.71" x2="1540.55" y2="1687.16"/><line class="cls-8" x1="148.22" y1="294.83" x2="86.25" y2="232.85"/><line class="cls-8" x1="39.76" y1="186.37" x2="37.76" y2="184.37"/></g><rect x="105.48" y="136.06" width="1514.32" height="613.16"/><rect x="1259.03" y="136.06" width="1405.94" height="362.32"/><text class="cls-9" transform="translate(193.79 390)">Szoftver technólógiák- <tspan x="0" y="240">és technikák</tspan></text></g></svg>