<?xml version="1.0" encoding="utf-8"?>
<!-- Generator: Adobe Illustrator 24.2.0, SVG Export Plug-In . SVG Version: 6.00 Build 0)  -->
<svg version="1.1" xmlns="http://www.w3.org/2000/svg" xmlns:xlink="http://www.w3.org/1999/xlink" x="0px" y="0px"
	 viewBox="0 0 2834.65 1417.32" style="enable-background:new 0 0 2834.65 1417.32;" xml:space="preserve">
<style type="text/css">
	.st0{fill:url(#SVGID_1_);}
	.st1{display:none;}
	.st2{display:inline;fill:url(#SVGID_2_);}
	.st3{display:inline;fill:url(#SVGID_3_);}
	.st4{clip-path:url(#SVGID_5_);fill:url(#SVGID_6_);}
	.st5{clip-path:url(#SVGID_5_);fill:url(#SVGID_7_);}
	.st6{clip-path:url(#SVGID_5_);fill:url(#SVGID_8_);}
	.st7{clip-path:url(#SVGID_5_);fill:url(#SVGID_9_);}
	
		.st8{clip-path:url(#SVGID_5_);fill:none;stroke:#FFFFFF;stroke-width:15;stroke-linecap:round;stroke-miterlimit:10;stroke-opacity:0.5;}
	.st9{clip-path:url(#SVGID_5_);fill:none;stroke:#FFFFFF;stroke-width:15;stroke-linecap:round;stroke-miterlimit:10;}
</style>
<g id="Réteg_1">
	<linearGradient id="SVGID_1_" gradientUnits="userSpaceOnUse" x1="44.1805" y1="1405.6998" x2="2772.8757" y2="20.5519">
		<stop  offset="0" style="stop-color:#FFCB55"/>
		<stop  offset="1" style="stop-color:#E94E1B"/>
	</linearGradient>
	<rect class="st0" width="2834.65" height="1417.32"/>
</g>
<g id="Réteg_2" class="st1">
	<linearGradient id="SVGID_2_" gradientUnits="userSpaceOnUse" x1="-636.4086" y1="287.7331" x2="-383.5914" y2="159.3973">
		<stop  offset="0" style="stop-color:#FFCB55"/>
		<stop  offset="1" style="stop-color:#E94E1B"/>
	</linearGradient>
	<circle class="st2" cx="-510" cy="223.57" r="141.73"/>
	<linearGradient id="SVGID_3_" gradientUnits="userSpaceOnUse" x1="-797.902" y1="-42.2285" x2="-372.3589" y2="-258.2439">
		<stop  offset="0" style="stop-color:#FFCB55"/>
		<stop  offset="1" style="stop-color:#E94E1B"/>
	</linearGradient>
	<rect x="-780.78" y="-291.97" class="st3" width="391.3" height="283.46"/>
</g>
<g id="Réteg_3">
	<g>
		<defs>
			<rect id="SVGID_4_" width="2834.65" height="1417.32"/>
		</defs>
		<clipPath id="SVGID_5_">
			<use xlink:href="#SVGID_4_"  style="overflow:visible;"/>
		</clipPath>
		
			<linearGradient id="SVGID_6_" gradientUnits="userSpaceOnUse" x1="-698.4785" y1="-633.5554" x2="5.11" y2="-990.713" gradientTransform="matrix(0.7071 0.7071 -0.7071 0.7071 367.1132 934.1901)">
			<stop  offset="0" style="stop-color:#FFCB55"/>
			<stop  offset="1" style="stop-color:#E94E1B"/>
		</linearGradient>
		<path class="st4" d="M996.9,415.44c-55.35,55.35-145.08,55.35-200.44,0L395.58,14.56c-55.35-55.35-55.35-145.08,0-200.44
			c55.35-55.35,145.08-55.35,200.44,0L996.9,215C1052.25,270.36,1052.24,360.09,996.9,415.44z"/>
		
			<linearGradient id="SVGID_7_" gradientUnits="userSpaceOnUse" x1="-5.667" y1="1204.2411" x2="697.9215" y2="847.0835" gradientTransform="matrix(0.7071 0.7071 -0.7071 0.7071 569.9809 -59.7627)">
			<stop  offset="0" style="stop-color:#FFCB55"/>
			<stop  offset="1" style="stop-color:#E94E1B"/>
		</linearGradient>
		<path class="st5" d="M390.14,1210.9c-55.35,55.35-145.08,55.35-200.44,0l-400.88-400.88c-55.35-55.35-55.35-145.08,0-200.44
			c55.35-55.35,145.08-55.35,200.44,0l400.88,400.88C445.49,1065.81,445.48,1155.55,390.14,1210.9z"/>
		<linearGradient id="SVGID_8_" gradientUnits="userSpaceOnUse" x1="1463.6268" y1="760.4449" x2="3184.5833" y2="1322.495">
			<stop  offset="0" style="stop-color:#FFCB55"/>
			<stop  offset="1" style="stop-color:#E94E1B"/>
		</linearGradient>
		<path class="st6" d="M3029.73,1747.1c-55.35,55.35-145.09,55.35-200.44,0c-0.43-0.43-0.86-0.87-1.29-1.3L1618.48,536.28
			c-55.35-55.35-55.35-145.09,0-200.44c55.35-55.35,145.09-55.35,200.44,0l1.29,1.3l1209.52,1209.52
			C3085.08,1602.01,3085.08,1691.75,3029.73,1747.1z"/>
		
			<linearGradient id="SVGID_9_" gradientUnits="userSpaceOnUse" x1="1539.7885" y1="387.9357" x2="2243.377" y2="30.7781" gradientTransform="matrix(0.7071 0.7071 -0.7071 0.7071 569.9809 -59.7627)">
			<stop  offset="0" style="stop-color:#FFCB55"/>
			<stop  offset="1" style="stop-color:#E94E1B"/>
		</linearGradient>
		<path class="st7" d="M2060.15,1726.48c-55.35,55.35-145.08,55.35-200.44,0l-400.88-400.88c-55.35-55.35-55.35-145.08,0-200.44
			c55.35-55.35,145.08-55.35,200.44,0l400.88,400.88C2115.51,1581.4,2115.5,1671.14,2060.15,1726.48z"/>
		<line class="st8" x1="-322.32" y1="-366.66" x2="640.58" y2="596.23"/>
		<line class="st8" x1="889.1" y1="-29.46" x2="1876.78" y2="958.22"/>
		<line class="st8" x1="2547.47" y1="474.6" x2="3669.75" y2="1596.88"/>
		<line class="st8" x1="194.71" y1="341.32" x2="1119.97" y2="1266.58"/>
		<line class="st8" x1="2500.99" y1="428.12" x2="2363.75" y2="290.88"/>
		<line class="st8" x1="2312.84" y1="239.97" x2="2268.57" y2="195.7"/>
		<line class="st8" x1="2235.36" y1="162.49" x2="2233.36" y2="160.49"/>
		<line class="st8" x1="1923.26" y1="1004.7" x2="2084.85" y2="1166.29"/>
		<line class="st8" x1="2168.96" y1="1250.41" x2="2170.97" y2="1252.41"/>
		<line class="st8" x1="1173.1" y1="1319.71" x2="1540.55" y2="1687.16"/>
		<line class="st9" x1="1604.74" y1="1751.35" x2="1706.57" y2="1853.17"/>
		<line class="st8" x1="148.22" y1="294.83" x2="86.25" y2="232.85"/>
		<line class="st8" x1="39.76" y1="186.37" x2="37.76" y2="184.37"/>
	</g>
</g>
</svg>
